<svg xmlns="http://www.w3.org/2000/svg" height="511pt" version="1.1" viewBox="0 -38 511.99997 511" width="511pt">
<g id="surface1">
<path d="M 189.46875 342.71875 C 187.292969 341.5625 167.628906 331.417969 147.179688 331.417969 C 140.886719 331.417969 135.035156 332.386719 129.785156 334.296875 C 104.480469 343.503906 90.941406 375.496094 89.484375 379.113281 C 86.609375 386.230469 89.574219 394.367188 96.347656 397.96875 C 98.523438 399.125 118.1875 409.273438 138.636719 409.273438 C 138.640625 409.273438 138.640625 409.273438 138.640625 409.273438 C 144.929688 409.273438 150.777344 408.304688 156.027344 406.394531 C 181.332031 397.183594 194.871094 365.195312 196.332031 361.578125 C 199.207031 354.464844 196.242188 346.324219 189.46875 342.71875 Z M 189.46875 342.71875 " style=" stroke:none;fill-rule:nonzero;fill:rgb(50.196078%,82.745098%,59.607843%);fill-opacity:1;" />
<path d="M 134.613281 301.066406 C 132.269531 297.949219 110.914062 270.550781 84.082031 268.203125 C 82.808594 268.089844 81.503906 268.035156 80.199219 268.035156 C 54.8125 268.035156 31.226562 289.355469 28.621094 291.789062 C 23.007812 297.023438 22.253906 305.648438 26.871094 311.78125 C 29.21875 314.894531 50.574219 342.289062 77.402344 344.636719 C 78.671875 344.75 79.980469 344.804688 81.285156 344.804688 C 81.285156 344.804688 81.285156 344.804688 81.289062 344.804688 C 106.671875 344.804688 130.257812 323.488281 132.863281 321.058594 C 138.476562 315.820312 139.230469 307.195312 134.613281 301.066406 Z M 134.613281 301.066406 " style=" stroke:none;fill-rule:nonzero;fill:rgb(50.196078%,82.745098%,59.607843%);fill-opacity:1;" />
<path d="M 102.507812 240.125 C 101.699219 236.308594 93.917969 202.457031 70.601562 188.988281 C 62.675781 184.414062 52.855469 182.09375 41.410156 182.09375 C 25.667969 182.09375 11.882812 186.429688 10.363281 186.921875 C 3.0625 189.296875 -1.265625 196.796875 0.328125 204.304688 C 1.140625 208.117188 8.917969 241.96875 32.238281 255.4375 C 40.164062 260.011719 49.984375 262.332031 61.429688 262.332031 C 61.433594 262.332031 61.433594 262.332031 61.433594 262.332031 C 77.171875 262.332031 90.953125 258 92.472656 257.503906 C 99.773438 255.132812 104.101562 247.632812 102.507812 240.125 Z M 102.507812 240.125 " style=" stroke:none;fill-rule:nonzero;fill:rgb(50.196078%,82.745098%,59.607843%);fill-opacity:1;" />
<path d="M 91.855469 111.496094 C 76.40625 89.433594 42.007812 84.640625 38.132812 84.167969 C 30.519531 83.234375 23.425781 88.203125 21.695312 95.679688 C 20.820312 99.480469 13.558594 133.449219 29.007812 155.503906 C 44.449219 177.558594 78.851562 182.363281 82.722656 182.835938 C 83.339844 182.910156 83.953125 182.949219 84.5625 182.949219 C 91.453125 182.949219 97.574219 178.199219 99.164062 171.328125 C 100.042969 167.527344 107.300781 133.554688 91.855469 111.496094 Z M 91.855469 111.496094 " style=" stroke:none;fill-rule:nonzero;fill:rgb(50.196078%,82.745098%,59.607843%);fill-opacity:1;" />
<path d="M 143.867188 50.25 C 139.191406 23.726562 110.039062 4.84375 106.726562 2.777344 C 100.21875 -1.285156 91.695312 0.21875 86.96875 6.261719 C 84.566406 9.335938 63.632812 37.050781 68.308594 63.574219 C 72.984375 90.089844 102.132812 108.976562 105.445312 111.042969 C 107.90625 112.582031 110.65625 113.324219 113.378906 113.324219 C 117.859375 113.324219 122.269531 111.316406 125.207031 107.558594 C 127.609375 104.484375 148.542969 76.765625 143.867188 50.25 Z M 143.867188 50.25 " style=" stroke:none;fill-rule:nonzero;fill:rgb(50.196078%,82.745098%,59.607843%);fill-opacity:1;" />
<path d="M 422.515625 379.113281 C 421.054688 375.496094 407.519531 343.507812 382.214844 334.296875 C 376.964844 332.386719 371.113281 331.417969 364.820312 331.417969 C 344.367188 331.417969 324.707031 341.566406 322.53125 342.71875 C 315.753906 346.324219 312.792969 354.464844 315.667969 361.578125 C 317.128906 365.195312 330.667969 397.183594 355.972656 406.394531 C 361.222656 408.304688 367.074219 409.273438 373.359375 409.273438 C 393.8125 409.273438 413.476562 399.125 415.652344 397.96875 C 422.425781 394.367188 425.390625 386.230469 422.515625 379.113281 Z M 422.515625 379.113281 " style=" stroke:none;fill-rule:nonzero;fill:rgb(0%,70.588235%,29.411765%);fill-opacity:1;" />
<path d="M 483.378906 291.789062 C 480.773438 289.355469 457.1875 268.035156 431.796875 268.035156 C 430.496094 268.035156 429.191406 268.089844 427.914062 268.203125 C 401.085938 270.550781 379.730469 297.949219 377.382812 301.066406 C 372.765625 307.195312 373.523438 315.824219 379.136719 321.058594 C 381.738281 323.488281 405.328125 344.804688 430.714844 344.804688 C 432.019531 344.804688 433.324219 344.75 434.601562 344.636719 C 461.425781 342.289062 482.78125 314.894531 485.128906 311.78125 C 489.746094 305.648438 488.992188 297.023438 483.378906 291.789062 Z M 483.378906 291.789062 " style=" stroke:none;fill-rule:nonzero;fill:rgb(0%,70.588235%,29.411765%);fill-opacity:1;" />
<path d="M 501.636719 186.921875 C 500.117188 186.429688 486.332031 182.09375 470.589844 182.09375 C 459.144531 182.09375 449.324219 184.414062 441.398438 188.988281 C 418.078125 202.457031 410.300781 236.308594 409.492188 240.125 C 407.898438 247.632812 412.226562 255.132812 419.527344 257.503906 C 421.046875 258 434.828125 262.332031 450.570312 262.332031 C 462.011719 262.332031 471.835938 260.011719 479.761719 255.433594 C 503.082031 241.96875 510.859375 208.117188 511.671875 204.300781 C 513.265625 196.796875 508.933594 189.296875 501.636719 186.921875 Z M 501.636719 186.921875 " style=" stroke:none;fill-rule:nonzero;fill:rgb(0%,70.588235%,29.411765%);fill-opacity:1;" />
<path d="M 490.300781 95.675781 C 488.574219 88.199219 481.476562 83.242188 473.863281 84.167969 C 469.992188 84.640625 435.589844 89.4375 420.144531 111.496094 C 404.699219 133.554688 411.957031 167.523438 412.835938 171.324219 C 414.425781 178.199219 420.542969 182.949219 427.4375 182.949219 C 428.042969 182.949219 428.660156 182.910156 429.277344 182.835938 C 433.148438 182.359375 467.546875 177.558594 482.992188 155.503906 C 498.441406 133.449219 491.179688 99.476562 490.300781 95.675781 Z M 490.300781 95.675781 " style=" stroke:none;fill-rule:nonzero;fill:rgb(0%,70.588235%,29.411765%);fill-opacity:1;" />
<path d="M 425.03125 6.261719 C 420.304688 0.214844 411.777344 -1.285156 405.269531 2.777344 C 401.960938 4.84375 372.8125 23.726562 368.132812 50.246094 C 363.457031 76.765625 384.390625 104.484375 386.792969 107.558594 C 389.730469 111.320312 394.140625 113.324219 398.621094 113.324219 C 401.347656 113.324219 404.097656 112.582031 406.558594 111.042969 C 409.867188 108.976562 439.015625 90.089844 443.695312 63.574219 C 448.367188 37.050781 427.433594 9.335938 425.03125 6.261719 Z M 425.03125 6.261719 " style=" stroke:none;fill-rule:nonzero;fill:rgb(0%,70.588235%,29.411765%);fill-opacity:1;" />
<path d="M 445.152344 198.179688 C 445.152344 164.390625 436.128906 131.222656 419.0625 102.261719 C 402.5 74.164062 378.828125 50.679688 350.605469 34.347656 C 343.433594 30.203125 334.257812 32.648438 330.109375 39.820312 C 325.960938 46.992188 328.410156 56.167969 335.578125 60.316406 C 384.660156 88.714844 415.152344 141.542969 415.152344 198.179688 C 415.152344 285.9375 343.753906 357.332031 256 357.332031 C 168.242188 357.332031 96.847656 285.9375 96.847656 198.179688 C 96.847656 141.539062 127.339844 88.714844 176.421875 60.316406 C 183.59375 56.167969 186.042969 46.992188 181.898438 39.820312 C 177.75 32.648438 168.570312 30.203125 161.402344 34.347656 C 133.175781 50.679688 109.503906 74.164062 92.941406 102.261719 C 75.871094 131.222656 66.847656 164.390625 66.847656 198.179688 C 66.847656 285.148438 125.855469 358.585938 205.929688 380.589844 C 197.199219 389.46875 189.203125 400.769531 182.1875 414.320312 C 178.378906 421.679688 181.257812 430.730469 188.617188 434.539062 C 195.972656 438.347656 205.023438 435.46875 208.832031 428.109375 C 222.242188 402.195312 239.4375 387.332031 256 387.332031 C 272.566406 387.332031 289.761719 402.195312 303.175781 428.113281 C 305.839844 433.261719 311.078125 436.21875 316.507812 436.21875 C 318.828125 436.21875 321.1875 435.675781 323.390625 434.535156 C 330.75 430.730469 333.625 421.675781 329.816406 414.320312 C 322.800781 400.765625 314.804688 389.464844 306.074219 380.589844 C 386.148438 358.585938 445.152344 285.148438 445.152344 198.179688 Z M 445.152344 198.179688 " style=" stroke:none;fill-rule:nonzero;fill:rgb(0%,70.588235%,29.411765%);fill-opacity:1;" />
<path d="M 445.152344 198.179688 C 445.152344 164.390625 436.128906 131.222656 419.0625 102.261719 C 402.5 74.164062 378.828125 50.679688 350.605469 34.347656 C 343.433594 30.203125 334.257812 32.648438 330.109375 39.820312 C 325.960938 46.992188 328.410156 56.167969 335.578125 60.316406 C 384.660156 88.714844 415.152344 141.542969 415.152344 198.179688 C 415.152344 285.9375 343.753906 357.332031 256 357.332031 L 256 387.332031 C 272.566406 387.332031 289.757812 402.195312 303.171875 428.113281 C 305.839844 433.261719 311.078125 436.21875 316.507812 436.21875 C 318.828125 436.21875 321.1875 435.675781 323.390625 434.535156 C 330.746094 430.730469 333.625 421.675781 329.816406 414.320312 C 322.800781 400.765625 314.804688 389.464844 306.074219 380.589844 C 386.148438 358.585938 445.152344 285.148438 445.152344 198.179688 Z M 445.152344 198.179688 " style=" stroke:none;fill-rule:nonzero;fill:rgb(0%,53.333333%,29.019608%);fill-opacity:1;" />
</g>
</svg>